<mxfile host="app.diagrams.net" modified="2024-01-30T09:43:12.522Z" agent="Mozilla/5.0 (Windows NT 10.0; Win64; x64) AppleWebKit/537.36 (KHTML, like Gecko) Chrome/120.0.0.0 Safari/537.36" etag="QZpMFNZhM8IE8sS8hePH" version="21.1.7" type="google" pages="2">
  <diagram id="pA1gCr985TKy-96Ni6BZ" name="Page-1">
    <mxGraphModel grid="0" page="0" gridSize="10" guides="1" tooltips="1" connect="1" arrows="1" fold="1" pageScale="1" pageWidth="850" pageHeight="1100" math="0" shadow="0">
      <root>
        <mxCell id="0" />
        <mxCell id="1" parent="0" />
        <mxCell id="ZvlgX2cec_exVhwTw5s4-31" value="" style="rounded=0;whiteSpace=wrap;html=1;fillColor=#d5e8d4;strokeColor=#82b366;" vertex="1" parent="1">
          <mxGeometry x="-571" y="-16" width="637" height="574" as="geometry" />
        </mxCell>
        <mxCell id="ZvlgX2cec_exVhwTw5s4-1" value="&lt;font size=&quot;1&quot; style=&quot;&quot;&gt;&lt;b style=&quot;background-color: rgb(255, 128, 0); font-size: 18px;&quot;&gt;Flowchart aplikasi pemesanan makanan&lt;/b&gt;&lt;/font&gt;" style="text;html=1;align=center;verticalAlign=middle;resizable=0;points=[];autosize=1;strokeColor=default;fillColor=none;" vertex="1" parent="1">
          <mxGeometry x="-426" y="-50" width="361" height="34" as="geometry" />
        </mxCell>
        <mxCell id="ZvlgX2cec_exVhwTw5s4-14" style="edgeStyle=orthogonalEdgeStyle;rounded=0;orthogonalLoop=1;jettySize=auto;html=1;exitX=0.5;exitY=1;exitDx=0;exitDy=0;entryX=0.5;entryY=0;entryDx=0;entryDy=0;" edge="1" parent="1" source="ZvlgX2cec_exVhwTw5s4-2" target="ZvlgX2cec_exVhwTw5s4-3">
          <mxGeometry relative="1" as="geometry" />
        </mxCell>
        <mxCell id="ZvlgX2cec_exVhwTw5s4-2" value="Buka aplikasi pemesanan makanan" style="rounded=1;whiteSpace=wrap;html=1;" vertex="1" parent="1">
          <mxGeometry x="-473.5" y="79" width="120" height="60" as="geometry" />
        </mxCell>
        <mxCell id="ZvlgX2cec_exVhwTw5s4-15" style="edgeStyle=orthogonalEdgeStyle;rounded=0;orthogonalLoop=1;jettySize=auto;html=1;exitX=0.5;exitY=1;exitDx=0;exitDy=0;entryX=0.5;entryY=0;entryDx=0;entryDy=0;" edge="1" parent="1" source="ZvlgX2cec_exVhwTw5s4-3" target="ZvlgX2cec_exVhwTw5s4-4">
          <mxGeometry relative="1" as="geometry" />
        </mxCell>
        <mxCell id="ZvlgX2cec_exVhwTw5s4-3" value="pilih menu yg diinginkan pada daftar menu" style="rounded=1;whiteSpace=wrap;html=1;" vertex="1" parent="1">
          <mxGeometry x="-473.5" y="156" width="120" height="60" as="geometry" />
        </mxCell>
        <mxCell id="ZvlgX2cec_exVhwTw5s4-16" style="edgeStyle=orthogonalEdgeStyle;rounded=0;orthogonalLoop=1;jettySize=auto;html=1;exitX=0.5;exitY=1;exitDx=0;exitDy=0;entryX=0.5;entryY=0;entryDx=0;entryDy=0;" edge="1" parent="1" source="ZvlgX2cec_exVhwTw5s4-4" target="ZvlgX2cec_exVhwTw5s4-5">
          <mxGeometry relative="1" as="geometry" />
        </mxCell>
        <mxCell id="ZvlgX2cec_exVhwTw5s4-4" value="jumlah, jenis, dan harga makanan." style="shape=parallelogram;perimeter=parallelogramPerimeter;whiteSpace=wrap;html=1;fixedSize=1;" vertex="1" parent="1">
          <mxGeometry x="-504.5" y="237" width="182" height="60" as="geometry" />
        </mxCell>
        <mxCell id="ZvlgX2cec_exVhwTw5s4-6" style="edgeStyle=orthogonalEdgeStyle;rounded=0;orthogonalLoop=1;jettySize=auto;html=1;exitX=1;exitY=0.5;exitDx=0;exitDy=0;entryX=1;entryY=0.5;entryDx=0;entryDy=0;" edge="1" parent="1" source="ZvlgX2cec_exVhwTw5s4-5" target="ZvlgX2cec_exVhwTw5s4-3">
          <mxGeometry relative="1" as="geometry">
            <Array as="points">
              <mxPoint x="-274.5" y="363" />
              <mxPoint x="-274.5" y="186" />
            </Array>
          </mxGeometry>
        </mxCell>
        <mxCell id="ZvlgX2cec_exVhwTw5s4-13" value="Yes" style="edgeLabel;html=1;align=center;verticalAlign=middle;resizable=0;points=[];" connectable="0" vertex="1" parent="ZvlgX2cec_exVhwTw5s4-6">
          <mxGeometry x="-0.6575" y="-2" relative="1" as="geometry">
            <mxPoint as="offset" />
          </mxGeometry>
        </mxCell>
        <mxCell id="ZvlgX2cec_exVhwTw5s4-17" value="No" style="edgeStyle=orthogonalEdgeStyle;rounded=0;orthogonalLoop=1;jettySize=auto;html=1;exitX=0.5;exitY=1;exitDx=0;exitDy=0;entryX=0.5;entryY=0;entryDx=0;entryDy=0;" edge="1" parent="1" source="ZvlgX2cec_exVhwTw5s4-5" target="ZvlgX2cec_exVhwTw5s4-7">
          <mxGeometry relative="1" as="geometry" />
        </mxCell>
        <mxCell id="ZvlgX2cec_exVhwTw5s4-5" value="Lanjutkan pemesanan?" style="rhombus;whiteSpace=wrap;html=1;" vertex="1" parent="1">
          <mxGeometry x="-453.5" y="323" width="80" height="80" as="geometry" />
        </mxCell>
        <mxCell id="ZvlgX2cec_exVhwTw5s4-20" style="edgeStyle=orthogonalEdgeStyle;rounded=0;orthogonalLoop=1;jettySize=auto;html=1;exitX=1;exitY=0.75;exitDx=0;exitDy=0;entryX=0;entryY=0.5;entryDx=0;entryDy=0;" edge="1" parent="1" source="ZvlgX2cec_exVhwTw5s4-7" target="ZvlgX2cec_exVhwTw5s4-8">
          <mxGeometry relative="1" as="geometry" />
        </mxCell>
        <mxCell id="ZvlgX2cec_exVhwTw5s4-7" value="Daftar makanan yg dipesan, jumlah, dan total harga" style="shape=parallelogram;perimeter=parallelogramPerimeter;whiteSpace=wrap;html=1;fixedSize=1;" vertex="1" parent="1">
          <mxGeometry x="-517" y="446" width="186.5" height="60" as="geometry" />
        </mxCell>
        <mxCell id="ZvlgX2cec_exVhwTw5s4-22" style="edgeStyle=orthogonalEdgeStyle;rounded=0;orthogonalLoop=1;jettySize=auto;html=1;exitX=1;exitY=0.5;exitDx=0;exitDy=0;entryX=0;entryY=0.5;entryDx=0;entryDy=0;" edge="1" parent="1" source="ZvlgX2cec_exVhwTw5s4-8" target="ZvlgX2cec_exVhwTw5s4-9">
          <mxGeometry relative="1" as="geometry" />
        </mxCell>
        <mxCell id="ZvlgX2cec_exVhwTw5s4-8" value="Pililh opsi pembayaran" style="rounded=1;whiteSpace=wrap;html=1;" vertex="1" parent="1">
          <mxGeometry x="-283.5" y="459" width="120" height="60" as="geometry" />
        </mxCell>
        <mxCell id="ZvlgX2cec_exVhwTw5s4-26" style="edgeStyle=orthogonalEdgeStyle;rounded=0;orthogonalLoop=1;jettySize=auto;html=1;exitX=0.5;exitY=0;exitDx=0;exitDy=0;entryX=0.5;entryY=1;entryDx=0;entryDy=0;" edge="1" parent="1" source="ZvlgX2cec_exVhwTw5s4-9" target="ZvlgX2cec_exVhwTw5s4-10">
          <mxGeometry relative="1" as="geometry" />
        </mxCell>
        <mxCell id="ZvlgX2cec_exVhwTw5s4-9" value="Informasi pembayaran" style="shape=parallelogram;perimeter=parallelogramPerimeter;whiteSpace=wrap;html=1;fixedSize=1;" vertex="1" parent="1">
          <mxGeometry x="-132" y="459" width="166" height="60" as="geometry" />
        </mxCell>
        <mxCell id="ZvlgX2cec_exVhwTw5s4-27" style="edgeStyle=orthogonalEdgeStyle;rounded=0;orthogonalLoop=1;jettySize=auto;html=1;exitX=0.5;exitY=0;exitDx=0;exitDy=0;entryX=0.5;entryY=1;entryDx=0;entryDy=0;" edge="1" parent="1" source="ZvlgX2cec_exVhwTw5s4-10" target="ZvlgX2cec_exVhwTw5s4-12">
          <mxGeometry relative="1" as="geometry" />
        </mxCell>
        <mxCell id="ZvlgX2cec_exVhwTw5s4-10" value="Proses pembayaran" style="rounded=1;whiteSpace=wrap;html=1;" vertex="1" parent="1">
          <mxGeometry x="-109" y="372" width="120" height="60" as="geometry" />
        </mxCell>
        <mxCell id="ZvlgX2cec_exVhwTw5s4-11" value="Pesanan Selesai" style="strokeWidth=2;html=1;shape=mxgraph.flowchart.start_1;whiteSpace=wrap;" vertex="1" parent="1">
          <mxGeometry x="-84" y="220" width="70" height="34" as="geometry" />
        </mxCell>
        <mxCell id="ZvlgX2cec_exVhwTw5s4-28" style="edgeStyle=orthogonalEdgeStyle;rounded=0;orthogonalLoop=1;jettySize=auto;html=1;exitX=0.5;exitY=0;exitDx=0;exitDy=0;entryX=0.5;entryY=1;entryDx=0;entryDy=0;entryPerimeter=0;" edge="1" parent="1" source="ZvlgX2cec_exVhwTw5s4-12" target="ZvlgX2cec_exVhwTw5s4-11">
          <mxGeometry relative="1" as="geometry" />
        </mxCell>
        <mxCell id="ZvlgX2cec_exVhwTw5s4-12" value="Konfirmasi pemesanan &amp;amp; nomor pesanan" style="shape=parallelogram;perimeter=parallelogramPerimeter;whiteSpace=wrap;html=1;fixedSize=1;" vertex="1" parent="1">
          <mxGeometry x="-132" y="283" width="166" height="60" as="geometry" />
        </mxCell>
        <mxCell id="ZvlgX2cec_exVhwTw5s4-30" style="edgeStyle=orthogonalEdgeStyle;rounded=0;orthogonalLoop=1;jettySize=auto;html=1;exitX=0.5;exitY=1;exitDx=0;exitDy=0;exitPerimeter=0;entryX=0.5;entryY=0;entryDx=0;entryDy=0;" edge="1" parent="1" source="ZvlgX2cec_exVhwTw5s4-29" target="ZvlgX2cec_exVhwTw5s4-2">
          <mxGeometry relative="1" as="geometry" />
        </mxCell>
        <mxCell id="ZvlgX2cec_exVhwTw5s4-29" value="Mulai Pesanan" style="strokeWidth=2;html=1;shape=mxgraph.flowchart.start_1;whiteSpace=wrap;" vertex="1" parent="1">
          <mxGeometry x="-451.5" y="28" width="78" height="34" as="geometry" />
        </mxCell>
      </root>
    </mxGraphModel>
  </diagram>
  <diagram id="Dv_Ylz4yTTPdztBjfpiq" name="Page-2">
    <mxGraphModel dx="1050" dy="591" grid="0" gridSize="10" guides="1" tooltips="1" connect="1" arrows="1" fold="1" page="0" pageScale="1" pageWidth="850" pageHeight="1100" math="0" shadow="0">
      <root>
        <mxCell id="0" />
        <mxCell id="1" parent="0" />
      </root>
    </mxGraphModel>
  </diagram>
</mxfile>
